<svg>
<circle cx="10.00" cy="10.00" r="13.00" fill="#e94dfa" stroke="#5efa4d" stroke-width="1px" opacity="0.5" />
<circle cx="26.00" cy="10.00" r="13.00" fill="#e94dfa" stroke="#5efa4d" stroke-width="1px" opacity="0.5" />
<circle cx="18.00" cy="18.00" r="13.00" fill="#e94dfa" stroke="#5efa4d" stroke-width="1px" opacity="0.5" />
<rect x="15.00" y="7.00" width="10.00" height="20.00" fill="#e94dfa" stroke="#5efa4d" stroke-width="1px" opacity="0.5"/>
<circle cx="10.00" cy="10.00" r="13.00" fill="#e94dfa" stroke="#5efa4d" stroke-width="1px" opacity="0.5" />
<circle cx="26.00" cy="10.00" r="13.00" fill="#e94dfa" stroke="#5efa4d" stroke-width="1px" opacity="0.5" />
<circle cx="18.00" cy="18.00" r="13.00" fill="#e94dfa" stroke="#5efa4d" stroke-width="1px" opacity="0.5" />
<rect x="15.00" y="7.00" width="10.00" height="20.00" fill="#e94dfa" stroke="#5efa4d" stroke-width="1px" opacity="0.5"/>
<circle cx="10.00" cy="10.00" r="13.00" fill="#e94dfa" stroke="#5efa4d" stroke-width="1px" opacity="0.5" />
<circle cx="26.00" cy="10.00" r="13.00" fill="#e94dfa" stroke="#5efa4d" stroke-width="1px" opacity="0.5" />
<circle cx="18.00" cy="18.00" r="13.00" fill="#e94dfa" stroke="#5efa4d" stroke-width="1px" opacity="0.5" />
<rect x="15.00" y="7.00" width="10.00" height="20.00" fill="#e94dfa" stroke="#5efa4d" stroke-width="1px" opacity="0.5"/>
<circle cx="10.00" cy="10.00" r="13.00" fill="#e94dfa" stroke="#5efa4d" stroke-width="1px" opacity="0.5" />
<circle cx="26.00" cy="10.00" r="13.00" fill="#e94dfa" stroke="#5efa4d" stroke-width="1px" opacity="0.5" />
<circle cx="18.00" cy="18.00" r="13.00" fill="#e94dfa" stroke="#5efa4d" stroke-width="1px" opacity="0.5" />
<rect x="15.00" y="7.00" width="10.00" height="20.00" fill="#e94dfa" stroke="#5efa4d" stroke-width="1px" opacity="0.5"/>
<circle cx="10.00" cy="10.00" r="13.00" fill="#e94dfa" stroke="#5efa4d" stroke-width="1px" opacity="0.5" />
<circle cx="26.00" cy="10.00" r="13.00" fill="#e94dfa" stroke="#5efa4d" stroke-width="1px" opacity="0.5" />
<circle cx="18.00" cy="18.00" r="13.00" fill="#e94dfa" stroke="#5efa4d" stroke-width="1px" opacity="0.5" />
<rect x="15.00" y="7.00" width="10.00" height="20.00" fill="#e94dfa" stroke="#5efa4d" stroke-width="1px" opacity="0.5"/>
<circle cx="10.00" cy="10.00" r="13.00" fill="#e94dfa" stroke="#5efa4d" stroke-width="1px" opacity="0.5" />
<circle cx="26.00" cy="10.00" r="13.00" fill="#e94dfa" stroke="#5efa4d" stroke-width="1px" opacity="0.5" />
<circle cx="18.00" cy="18.00" r="13.00" fill="#e94dfa" stroke="#5efa4d" stroke-width="1px" opacity="0.5" />
<rect x="15.00" y="7.00" width="10.00" height="20.00" fill="#e94dfa" stroke="#5efa4d" stroke-width="1px" opacity="0.5"/>
<circle cx="10.00" cy="10.00" r="13.00" fill="#e94dfa" stroke="#5efa4d" stroke-width="1px" opacity="0.5" />
<circle cx="26.00" cy="10.00" r="13.00" fill="#e94dfa" stroke="#5efa4d" stroke-width="1px" opacity="0.5" />
<circle cx="18.00" cy="18.00" r="13.00" fill="#e94dfa" stroke="#5efa4d" stroke-width="1px" opacity="0.5" />
<rect x="15.00" y="7.00" width="10.00" height="20.00" fill="#e94dfa" stroke="#5efa4d" stroke-width="1px" opacity="0.5"/>
<circle cx="10.00" cy="10.00" r="13.00" fill="#e94dfa" stroke="#5efa4d" stroke-width="1px" opacity="0.5" />
<circle cx="26.00" cy="10.00" r="13.00" fill="#e94dfa" stroke="#5efa4d" stroke-width="1px" opacity="0.5" />
<circle cx="18.00" cy="18.00" r="13.00" fill="#e94dfa" stroke="#5efa4d" stroke-width="1px" opacity="0.5" />
<rect x="15.00" y="7.00" width="10.00" height="20.00" fill="#e94dfa" stroke="#5efa4d" stroke-width="1px" opacity="0.5"/>
<circle cx="10.00" cy="10.00" r="13.00" fill="#e94dfa" stroke="#5efa4d" stroke-width="1px" opacity="0.5" />
<circle cx="26.00" cy="10.00" r="13.00" fill="#e94dfa" stroke="#5efa4d" stroke-width="1px" opacity="0.5" />
<circle cx="18.00" cy="18.00" r="13.00" fill="#e94dfa" stroke="#5efa4d" stroke-width="1px" opacity="0.5" />
<rect x="15.00" y="7.00" width="10.00" height="20.00" fill="#e94dfa" stroke="#5efa4d" stroke-width="1px" opacity="0.5"/>
<circle cx="10.00" cy="10.00" r="13.00" fill="#e94dfa" stroke="#5efa4d" stroke-width="1px" opacity="0.5" />
<circle cx="26.00" cy="10.00" r="13.00" fill="#e94dfa" stroke="#5efa4d" stroke-width="1px" opacity="0.5" />
<circle cx="18.00" cy="18.00" r="13.00" fill="#e94dfa" stroke="#5efa4d" stroke-width="1px" opacity="0.5" />
<rect x="15.00" y="7.00" width="10.00" height="20.00" fill="#e94dfa" stroke="#5efa4d" stroke-width="1px" opacity="0.5"/>
</svg>