<svg>
<line x1="174.00" y1="10.00" x2="166.00" y2="6.00" stroke="blue" stroke-width="1px"/>
<line x1="21.00" y1="42.00" x2="23.00" y2="76.00" stroke="blue" stroke-width="1px"/>
<line x1="66.00" y1="42.00" x2="64.00" y2="79.00" stroke="blue" stroke-width="1px"/>
<line x1="21.00" y1="83.00" x2="63.00" y2="83.00" stroke="blue" stroke-width="1px"/>
<line x1="24.00" y1="38.00" x2="60.00" y2="39.00" stroke="blue" stroke-width="1px"/>
<line x1="22.00" y1="37.00" x2="40.00" y2="28.00" stroke="blue" stroke-width="1px"/>
<line x1="43.00" y1="27.00" x2="82.00" y2="27.00" stroke="blue" stroke-width="1px"/>
<line x1="83.00" y1="70.00" x2="82.00" y2="29.00" stroke="blue" stroke-width="1px"/>
<line x1="65.00" y1="38.00" x2="83.00" y2="27.00" stroke="blue" stroke-width="1px"/>
<line x1="65.00" y1="82.00" x2="81.00" y2="72.00" stroke="blue" stroke-width="1px"/>
<line x1="42.00" y1="27.00" x2="41.00" y2="72.00" stroke="blue" stroke-width="1px"/>
<line x1="83.00" y1="72.00" x2="41.00" y2="71.00" stroke="blue" stroke-width="1px"/>
<line x1="26.00" y1="46.00" x2="26.00" y2="57.00" stroke="blue" stroke-width="1px"/>
<line x1="37.00" y1="57.00" x2="27.00" y2="56.00" stroke="blue" stroke-width="1px"/>
<line x1="37.00" y1="55.00" x2="37.00" y2="46.00" stroke="blue" stroke-width="1px"/>
<line x1="25.00" y1="45.00" x2="37.00" y2="45.00" stroke="blue" stroke-width="1px"/>
<line x1="45.00" y1="80.00" x2="45.00" y2="58.00" stroke="blue" stroke-width="1px"/>
<line x1="45.00" y1="55.00" x2="57.00" y2="55.00" stroke="blue" stroke-width="1px"/>
<line x1="57.00" y1="58.00" x2="57.00" y2="80.00" stroke="blue" stroke-width="1px"/>
<line x1="144.00" y1="71.00" x2="166.00" y2="82.00" stroke="blue" stroke-width="1px"/>
<line x1="161.00" y1="74.00" x2="174.00" y2="105.00" stroke="blue" stroke-width="1px"/>
<line x1="172.00" y1="92.00" x2="158.00" y2="118.00" stroke="blue" stroke-width="1px"/>
<line x1="169.00" y1="113.00" x2="127.00" y2="116.00" stroke="blue" stroke-width="1px"/>
<line x1="127.00" y1="123.00" x2="107.00" y2="91.00" stroke="blue" stroke-width="1px"/>
<line x1="104.00" y1="104.00" x2="135.00" y2="69.00" stroke="blue" stroke-width="1px"/>
<line x1="116.00" y1="37.00" x2="116.00" y2="70.00" stroke="blue" stroke-width="1px"/>
<line x1="119.00" y1="35.00" x2="137.00" y2="22.00" stroke="blue" stroke-width="1px"/>
<line x1="117.00" y1="35.00" x2="116.00" y2="16.00" stroke="blue" stroke-width="1px"/>
<line x1="114.00" y1="35.00" x2="101.00" y2="24.00" stroke="blue" stroke-width="1px"/>
<line x1="117.00" y1="25.00" x2="105.00" y2="17.00" stroke="blue" stroke-width="1px"/>
<line x1="121.00" y1="26.00" x2="128.00" y2="18.00" stroke="blue" stroke-width="1px"/>
<line x1="121.00" y1="18.00" x2="129.00" y2="7.00" stroke="blue" stroke-width="1px"/>
<line x1="176.00" y1="30.00" x2="176.00" y2="64.00" stroke="blue" stroke-width="1px"/>
<line x1="179.00" y1="28.00" x2="197.00" y2="16.00" stroke="blue" stroke-width="1px"/>
<line x1="176.00" y1="29.00" x2="179.00" y2="9.00" stroke="blue" stroke-width="1px"/>
<line x1="173.00" y1="28.00" x2="161.00" y2="17.00" stroke="blue" stroke-width="1px"/>
<line x1="177.00" y1="19.00" x2="165.00" y2="10.00" stroke="blue" stroke-width="1px"/>
<line x1="180.00" y1="12.00" x2="187.00" y2="5.00" stroke="blue" stroke-width="1px"/>
<line x1="44.00" y1="85.00" x2="29.00" y2="96.00" stroke="blue" stroke-width="1px"/>
<line x1="26.00" y1="96.00" x2="8.00" y2="124.00" stroke="blue" stroke-width="1px"/>
<line x1="57.00" y1="86.00" x2="41.00" y2="98.00" stroke="blue" stroke-width="1px"/>
<line x1="39.00" y1="98.00" x2="21.00" y2="126.00" stroke="blue" stroke-width="1px"/>
<line x1="23.00" y1="81.00" x2="39.00" y2="72.00" stroke="blue" stroke-width="1px"/>
<line x1="182.00" y1="18.00" x2="190.00" y2="7.00" stroke="blue" stroke-width="1px"/>
<line x1="21.00" y1="38.00" x2="40.00" y2="13.00" stroke="blue" stroke-width="1px"/>
<line x1="38.00" y1="10.00" x2="73.00" y2="45.00" stroke="blue" stroke-width="1px"/>
<line x1="70.00" y1="6.00" x2="33.00" y2="13.00" stroke="blue" stroke-width="1px"/>
<line x1="87.00" y1="28.00" x2="59.00" y2="1.00" stroke="blue" stroke-width="1px"/>
</svg>